<!DOCTYPE svg PUBLIC "-//W3C//DTD SVG 1.1//EN" "http://www.w3.org/Graphics/SVG/1.1/DTD/svg11.dtd">
<!-- Uploaded to: SVG Repo, www.svgrepo.com, Transformed by: SVG Repo Mixer Tools -->
<svg fill="#e100ff" height="800px" width="800px" version="1.1" id="Capa_1" xmlns="http://www.w3.org/2000/svg" xmlns:xlink="http://www.w3.org/1999/xlink" viewBox="0 0 466.895 466.895" xml:space="preserve" stroke="#e100ff">
<g id="SVGRepo_bgCarrier" stroke-width="0"/>
<g id="SVGRepo_tracerCarrier" stroke-linecap="round" stroke-linejoin="round"/>
<g id="SVGRepo_iconCarrier"> <g id="XMLID_1420_"> <path id="XMLID_37_" d="M442.696,45.683c-45.025-10.893-79.405,10.133-102.816,54.905 c-24.814,47.458-23.348,108.921-24.697,153.742c-2.222,73.961-34.649,119.255-64.097,139.071 c2.061-17.417-9.505-33.892-26.991-37.578c-18.557-3.908-36.734,7.941-40.644,26.496c-4.035,19.146,9.03,40.24,32.816,41.629 c38.625,0.872,68.498-4.12,96.454-26.109c39.418-31.003,60.539-85.837,62.779-162.981c0.154-5.288,0.296-10.363,0.433-15.279 c7.138-2.757,23.448-6.713,44.885,2.701c4.764,2.092,10.321-0.075,12.412-4.837c2.092-4.763-0.074-10.32-4.837-12.411 c-21.878-9.609-40.138-8.276-51.912-5.291c2.15-76.845,3.601-100.482,21.903-123.871c-1.289,16.884,10.117,32.574,27.127,36.159 c2.376,0.501,4.745,0.741,7.082,0.741c15.87,0,30.162-11.102,33.561-27.237C469.836,68.059,459.445,50.838,442.696,45.683z M232.156,392.583c-1.759,8.346-9.979,13.707-18.326,11.946c-8.346-1.759-13.705-9.98-11.946-18.326 c1.753-8.322,9.915-13.718,18.326-11.946C228.556,376.016,233.915,384.237,232.156,392.583z M276.425,397.369 c38.588-35.369,55.997-89.53,57.588-142.472c1.294-43.143-0.052-102.333,22.561-145.579c4.314-8.251,8.744-15.509,13.275-21.776 C340.087,161.483,392.207,349.879,276.425,397.369z M447.72,81.65c-1.76,8.346-9.978,13.705-18.325,11.946 c-8.347-1.759-13.706-9.98-11.947-18.326c1.762-8.364,9.959-13.709,18.325-11.946c1.323,0.279,4.323,1.058,6.303,2.947 C446.585,69.794,448.977,75.683,447.72,81.65z"/> <path id="XMLID_1428_" d="M193.206,219.581c7.138-2.757,23.448-6.713,44.885,2.701c4.764,2.092,10.321-0.075,12.412-4.837 c2.092-4.763-0.074-10.32-4.837-12.411c-21.878-9.609-40.138-8.276-51.912-5.291c2.15-76.845,3.601-100.482,21.903-123.871 c-1.289,16.884,10.117,32.574,27.127,36.159c2.376,0.501,4.745,0.741,7.082,0.741c15.87,0,30.162-11.102,33.561-27.237 c3.682-17.475-6.709-34.697-23.458-39.851c-45.025-10.893-79.405,10.133-102.816,54.905 c-24.814,47.458-23.348,108.921-24.697,153.742c-2.222,73.961-34.649,119.255-64.097,139.071 c2.061-17.417-9.505-33.892-26.991-37.578c-18.557-3.908-36.734,7.941-40.644,26.496c-4.035,19.146,9.03,40.24,32.816,41.629 c38.625,0.872,68.498-4.12,96.454-26.109c39.417-31.003,60.539-85.837,62.779-162.981 C192.927,229.571,193.07,224.496,193.206,219.581z M234.722,75.27c1.762-8.364,9.959-13.709,18.325-11.946 c1.322,0.279,4.323,1.058,6.303,2.947c4.509,3.523,6.901,9.413,5.644,15.379c-1.76,8.346-9.978,13.705-18.325,11.946 C238.323,91.838,232.964,83.617,234.722,75.27z M49.431,392.583c-1.759,8.346-9.979,13.707-18.326,11.946 c-8.346-1.759-13.705-9.98-11.946-18.326c1.753-8.322,9.915-13.718,18.326-11.946C45.83,376.016,51.189,384.237,49.431,392.583z M93.699,397.369c38.588-35.369,55.997-89.53,57.588-142.472c1.294-43.143-0.052-102.333,22.561-145.579 c4.314-8.251,8.744-15.509,13.275-21.776C157.361,161.483,209.481,349.879,93.699,397.369z"/> </g> </g>
</svg>