<!DOCTYPE svg PUBLIC "-//W3C//DTD SVG 1.1//EN" "http://www.w3.org/Graphics/SVG/1.1/DTD/svg11.dtd">
<!-- Uploaded to: SVG Repo, www.svgrepo.com, Transformed by: SVG Repo Mixer Tools -->
<svg fill="#44403c" width="800px" height="800px" viewBox="0 0 20 20" xmlns="http://www.w3.org/2000/svg">
<g id="SVGRepo_bgCarrier" stroke-width="0"/>
<g id="SVGRepo_tracerCarrier" stroke-linecap="round" stroke-linejoin="round"/>
<g id="SVGRepo_iconCarrier">
<path d="M16 8A6 6 0 1 0 4 8v11H2a2 2 0 0 1-2-2v-4a2 2 0 0 1 2-2V8a8 8 0 1 1 16 0v3a2 2 0 0 1 2 2v4a2 2 0 0 1-2 2h-2V8zm-4 2h3v10h-3V10zm-7 0h3v10H5V10z"/>
</g>
</svg>