<!DOCTYPE svg PUBLIC "-//W3C//DTD SVG 1.1//EN" "http://www.w3.org/Graphics/SVG/1.1/DTD/svg11.dtd">
<!-- Uploaded to: SVG Repo, www.svgrepo.com, Transformed by: SVG Repo Mixer Tools -->
<svg width="800px" height="800px" viewBox="0 0 24 24" fill="none" xmlns="http://www.w3.org/2000/svg">
<g id="SVGRepo_bgCarrier" stroke-width="0"/>
<g id="SVGRepo_tracerCarrier" stroke-linecap="round" stroke-linejoin="round"/>
<g id="SVGRepo_iconCarrier">
<path fill-rule="evenodd" clip-rule="evenodd" d="M4 3a1 1 0 0 0-2 0v17.2A1.8 1.8 0 0 0 3.8 22H21a1 1 0 1 0 0-2H4V3Zm17.707 4.707a1 1 0 0 0-1.414-1.414L14 12.586l-3.293-3.293a1 1 0 0 0-1.414 0l-4 4a1 1 0 1 0 1.414 1.414L10 11.414l3.293 3.293a1 1 0 0 0 1.414 0l7-7Z" fill="#44403c"/>
</g>
</svg>